:SAMPLES-PER-SECOND 30
:FRAME-RANGE 1-663
:FULLY-SPECIFIED
:DEGREES
498
root  -13.2576 39.8929 -76.6695 -160.247 71.982 -168.076
RightUpLeg  -13.6665 -0.14937 4.55224
RightLeg  13.3255 11.0849 3.08979
RightFoot  -5.75036 0.191836 -4.71961
RightToes  -3.4386e-010 1.2921e-014 -6.02303e-014
Spine  -6.50957 -6.13724 -0.0676786
Spine1  8.91394 -7.88958 5.70249
HEad  11.9427 7.42354 -0.656388
LeftShoulder1  3.26997 -12.2106 -14.4182
LeftArm  -17.9473 -41.1877 -43.2422
LeftForeArm  -4.14832 -1.39202 -6.19167
LeftHand  0.0997759 2.1405 -4.07216
RightShoulder  2.02759 4.4435 19.8233
RightArm  -15.4007 43.7416 58.6121
RightForeArm  19.4815 6.85351 5.80803
RightHand  -0.0956215 -3.06597 -4.06882
LeftUpLeg  -5.48497 6.30713 0.944344
LeftLeg  16.9139 17.7239 6.2029
LeftFoot  -13.4135 -0.0684252 -8.20997
LeftToes  -7.12384e-010 -7.51861e-011 -8.34901e-011
499
root  -13.186 39.857 -76.7047 -162.031 70.0981 -169.586
RightUpLeg  -13.3021 -1.13705 4.35683
RightLeg  13.7421 9.73504 3.15319
RightFoot  -6.3887 0.181692 -5.19299
RightToes  -3.4386e-010 1.2921e-014 -6.02303e-014
Spine  -6.03608 -5.98587 0.163765
Spine1  8.33878 -7.68705 5.76433
HEad  12.3025 7.76315 -1.15993
LeftShoulder1  3.11897 -11.5407 -14.3491
LeftArm  -17.8569 -41.7295 -43.418
LeftForeArm  -1.76096 -1.42661 -6.24651
LeftHand  0.139081 1.76892 -4.85767
RightShoulder  2.01599 4.35324 19.9906
RightArm  -15.7122 42.2654 57.6073
RightForeArm  22.0547 6.54365 6.04577
RightHand  -0.145128 -2.04921 -4.73804
LeftUpLeg  -6.89761 7.25749 1.29267
LeftLeg  20.0805 14.2372 6.00735
LeftFoot  -13.7628 -0.0670665 -7.06428
LeftToes  -7.12384e-010 -7.51861e-011 -8.34901e-011
500
root  -13.097 39.8052 -76.7671 -163.104 68.0849 -170.378
RightUpLeg  -12.8055 -1.84919 4.24926
RightLeg  13.9485 8.65782 3.2315
RightFoot  -7.29112 0.101553 -4.26194
RightToes  -3.4386e-010 1.2921e-014 -6.02303e-014
Spine  -5.98388 -5.73546 0.808597
Spine1  8.1347 -7.39805 5.69187
HEad  12.7837 8.48797 -1.89925
LeftShoulder1  2.97999 -11.0002 -14.1565
LeftArm  -17.949 -40.9599 -44.3827
LeftForeArm  -1.07292 -2.33266 -6.2159
LeftHand  0.0688258 2.2787 -3.10619
RightShoulder  2.01478 4.27275 20.273
RightArm  -16.595 40.6329 56.4418
RightForeArm  23.5632 6.01117 5.96538
RightHand  -0.168496 -2.20869 -5.81906
LeftUpLeg  -8.35063 8.3905 2.02754
LeftLeg  23.2023 10.7793 5.34888
LeftFoot  -15.0736 -0.142446 -7.13419
LeftToes  -7.12384e-010 -7.51861e-011 -8.34901e-011
501
root  -12.9995 39.7762 -76.8734 -164.881 65.7335 -171.643
RightUpLeg  -11.9245 -2.71228 3.8865
RightLeg  14.1147 7.00824 3.16356
RightFoot  -8.09527 0.0509992 -3.72867
RightToes  -3.4386e-010 1.2921e-014 -6.02303e-014
Spine  -5.91149 -5.54122 1.31586
Spine1  8.20797 -7.1903 5.68999
HEad  13.2305 9.90471 -3.08935
LeftShoulder1  2.93516 -10.4213 -14.7652
LeftArm  -18.0157 -39.6606 -45.2021
LeftForeArm  0.664381 -3.08282 -6.2277
LeftHand  0.0395469 2.25863 -1.96946
RightShoulder  1.97662 4.08649 20.4342
RightArm  -17.703 39.0573 55.6515
RightForeArm  27.4009 4.90193 5.58646
RightHand  -0.188091 -2.33168 -6.79246
LeftUpLeg  -9.35626 8.88931 2.73825
LeftLeg  25.613 9.0076 5.00628
LeftFoot  -16.0104 -0.20976 -7.48765
LeftToes  -7.12384e-010 -7.51861e-011 -8.34901e-011
502
root  -12.9179 39.7766 -77.0355 -166.944 63.325 -173.297
RightUpLeg  -11.0242 -3.73699 3.13953
RightLeg  14.2483 5.5938 3.15445
RightFoot  -8.80259 0.0141409 -3.32219
RightToes  -3.4386e-010 1.2921e-014 -6.02303e-014
Spine  -5.82699 -5.26222 1.92796
Spine1  8.21811 -6.81834 5.35918
HEad  13.6843 11.7192 -4.41575
LeftShoulder1  2.88558 -9.67128 -15.7029
LeftArm  -17.5789 -37.7958 -46.2392
LeftForeArm  3.10018 -3.66257 -6.41656
LeftHand  0.0247174 2.0039 -1.24799
RightShoulder  1.93165 3.88828 20.5496
RightArm  -18.1407 37.4871 55.1014
RightForeArm  30.7701 3.38756 5.44205
RightHand  -0.176058 -2.91498 -7.7266
LeftUpLeg  -10.3948 9.34617 3.25524
LeftLeg  27.3538 9.0931 5.40568
LeftFoot  -16.2089 -0.225048 -7.56895
LeftToes  -7.12384e-010 -7.51861e-011 -8.34901e-011
503
root  -12.8448 39.7946 -77.209 -168.754 60.8858 -174.897
RightUpLeg  -10.2039 -4.39505 2.35136
RightLeg  14.2319 3.98166 2.87302
RightFoot  -9.50196 -0.0209353 -2.69783
RightToes  -3.4386e-010 1.2921e-014 -6.02303e-014
Spine  -5.84143 -4.94181 2.69784
Spine1  8.24951 -6.32223 4.58599
HEad  13.8086 13.2562 -5.64344
LeftShoulder1  2.7982 -9.04452 -16.1646
LeftArm  -15.9108 -34.738 -47.305
LeftForeArm  3.24606 -4.52165 -7.0579
LeftHand  0.0396322 1.57896 -1.49528
RightShoulder  1.90536 3.80009 20.508
RightArm  -17.6653 35.6335 55.2103
RightForeArm  34.0471 2.0873 5.76452
RightHand  -0.120779 -4.0266 -8.97713
LeftUpLeg  -11.6519 10.1925 3.83702
LeftLeg  28.3186 9.88005 6.05617
LeftFoot  -15.9571 -0.215438 -7.70631
LeftToes  -7.12384e-010 -7.51861e-011 -8.34901e-011
504
root  -12.7727 39.824 -77.4167 -170.802 58.2711 -176.913
RightUpLeg  -9.42919 -5.39258 1.15312
RightLeg  14.2875 2.67786 2.7202
RightFoot  -10.1864 -0.0483363 -2.0405
RightToes  -3.4386e-010 1.2921e-014 -6.02303e-014
Spine  -5.96225 -4.47432 3.26389
Spine1  8.31796 -5.60903 3.57548
HEad  14.2582 14.8229 -6.64836
LeftShoulder1  2.88777 -9.38281 -16.2748
LeftArm  -13.8385 -30.5328 -47.7738
LeftForeArm  3.71252 -5.52906 -7.94933
LeftHand  0.0401558 1.47658 -1.45399
RightShoulder  1.8687 3.54463 21.0012
RightArm  -16.4444 34.0074 55.0226
RightForeArm  38.2582 0.439674 6.4878
RightHand  -0.0504003 -5.01582 -9.85944
LeftUpLeg  -12.9177 10.9642 4.20271
LeftLeg  28.2299 11.029 6.68408
LeftFoot  -15.1975 -0.154459 -7.2828
LeftToes  -7.12384e-010 -7.51861e-011 -8.34901e-011
505
root  -12.7087 39.8589 -77.6657 -172.664 55.3878 -178.703
RightUpLeg  -8.44456 -6.25908 -0.102853
RightLeg  14.2728 0.730866 2.3934
RightFoot  -10.7904 -0.0664111 -1.37301
RightToes  -3.4386e-010 1.2921e-014 -6.02303e-014
Spine  -5.76484 -4.113 3.87471
Spine1  8.2032 -5.00916 2.60307
HEad  14.6596 16.529 -7.64388
LeftShoulder1  2.75437 -8.48779 -16.9265
LeftArm  -12.1493 -26.8041 -48.5979
LeftForeArm  6.49543 -5.72848 -8.62234
LeftHand  0.0492941 1.291 -1.62012
RightShoulder  1.89343 3.63264 21.0146
RightArm  -14.9059 32.0445 55.4948
RightForeArm  42.6641 -1.00774 7.33364
RightHand  -0.0159557 -5.43909 -9.94657
LeftUpLeg  -14.0561 11.1229 4.68935
LeftLeg  27.186 12.0721 6.9816
LeftFoot  -14.0377 -0.084222 -7.14163
LeftToes  -7.12384e-010 -7.51861e-011 -8.34901e-011
506
root  -12.6205 39.8839 -77.9322 -174.033 52.6452 179.974
RightUpLeg  -7.38606 -6.41391 -0.991018
RightLeg  14.1126 -1.66168 1.57018
RightFoot  -11.401 -0.0773473 -0.321403
RightToes  -3.4386e-010 1.2921e-014 -6.02303e-014
Spine  -5.52675 -3.64776 4.79189
Spine1  7.90102 -4.19336 1.08136
HEad  15.4436 17.6141 -8.36102
LeftShoulder1  2.64435 -7.88596 -17.2242
LeftArm  -11.1545 -22.1367 -49.0719
LeftForeArm  8.06903 -5.76764 -9.04968
LeftHand  0.00811892 1.30467 -0.439227
RightShoulder  1.91995 3.63764 21.4033
RightArm  -12.4016 30.1575 56.2445
RightForeArm  46.0985 -2.46744 8.72414
RightHand  0.0550916 -6.22984 -10.6927
LeftUpLeg  -15.1429 11.199 5.4733
LeftLeg  25.3013 12.3578 6.61897
LeftFoot  -12.3198 0.0138906 -7.0022
LeftToes  -7.12384e-010 -7.51861e-011 -8.34901e-011
